<?xml version="1.0" encoding="UTF-8"?><svg version="1.1" viewBox="0 0 16 16" xmlns="http://www.w3.org/2000/svg" xmlns:xlink="http://www.w3.org/1999/xlink"><g transform="matrix(.666667 0 0 .666667 0 0)"><path fill="none" d="M0 0h24v24h-24Z"></path><path fill="#000" d="M12 22c1.1 0 2-.9 2-2h-4c0 1.1.9 2 2 2Zm6-6v-5c0-3.07-1.63-5.64-4.5-6.32v-.68c0-.83-.67-1.5-1.5-1.5 -.83 0-1.5.67-1.5 1.5v.68c-2.86.68-4.5 3.24-4.5 6.32v5l-2 2v1h16v-1l-2-2Zm-2 1h-8v-6c0-2.48 1.51-4.5 4-4.5 2.49 0 4 2.02 4 4.5v6Z"></path></g></svg>