<?xml version="1.0" encoding="UTF-8"?><svg version="1.1" viewBox="0 0 12 12" xmlns="http://www.w3.org/2000/svg" xmlns:xlink="http://www.w3.org/1999/xlink"><path d="M21.002 4.025c.001-.016-.005-.03-.005-.046v0c0 0 0 0 0-.001 0-.076-.018-.146-.049-.21 -.004-.008-.008-.015-.012-.022 -.031-.056-.07-.104-.12-.145 -.006-.005-.009-.014-.015-.019 -.005-.004-.011-.004-.016-.007 -.046-.032-.097-.053-.152-.069 -.019-.005-.035-.013-.054-.016 -.01-.001-.017-.007-.027-.008 -1.664-.155-2.801-.626-3.287-1.36 -.432-.652-.227-1.321-.219-1.345 .06-.177.017-.373-.113-.507 -.13-.135-.325-.185-.503-.133l-12.095 3.587c-.01.003-.016.01-.025.013 -.009.004-.02.004-.029.007 -.024.011-.041.029-.063.043 -.026.016-.052.03-.074.05 -.007.006-.015.009-.022.015 -.017.017-.026.04-.04.059 -.018.026-.038.05-.051.078 -.004.008-.011.014-.015.023 -.008.02-.008.044-.013.066 -.009.033-.018.065-.02.1 -.001.01-.005.018-.005.027v.004 0 0l.018 15.792c0 .035.061 3.481 4.446 3.874 .01.001.019.01.029.01 .008 0 .015-.003.022-.003 .003 0 .005.001.008.001 .014.001.028.002.042.002 .084 0 .16-.027.23-.064l11.857-3.231c.217-.06.368-.257.368-.482v-16.066c-3.55271e-15-.006.003-.011.004-.017Zm-12.547 2.717c-.737-.073-1.318-.23-1.775-.435l10.308-3.019c.363.309.821.56 1.37.755l-9.903 2.699Zm7.849-4.296l-10.685 3.13c-.346-.372-.506-.75-.579-1.017l10.954-3.251c.013.333.096.732.31 1.138Zm-11.308 17.553l-.016-13.659c.058.059.115.118.18.176 .014.012.025.023.041.033 .59.511 1.47.951 2.77 1.139v15.121c-2.906-.511-2.974-2.713-2.975-2.81Zm15.001-.274l-11.026 3.005v-15.092l11.026-3.005v15.092Z" transform="matrix(.5 0 0 .5 0 0)" fill="#000"></path></svg>