<?xml version="1.0" encoding="UTF-8"?><svg version="1.1" viewBox="0 0 12 12" xmlns="http://www.w3.org/2000/svg" xmlns:xlink="http://www.w3.org/1999/xlink"><g transform="matrix(.5 0 0 .5 0 0)"><path fill="#000" d="M21.107 0h-18.37c-1.586 0-2.737 1.163-2.737 2.765v18.43c0 1.625 1.151 2.805 2.737 2.805h18.37c1.622 0 2.893-1.233 2.893-2.805v-18.43c0-1.576-1.243-2.765-2.893-2.765Zm-18.37 1h18.37c1.08 0 1.893.759 1.893 1.765v4.235h-22v-4.235c0-1.056.698-1.765 1.737-1.765Zm7.263 14v-3h4v3h-4Zm4 1v3h-4v-3h4Zm-5-1h-4v-3h4v3Zm6-3h4v3h-4v-3Zm0-1v-3h4v3h-4Zm-1 0h-4v-3h4v3Zm-5 0h-4v-3h4v3Zm-5 0h-3v-3h3v3Zm0 1v3h-3v-3h3Zm0 4v3h-3v-3h3Zm1 0h4v3h-4v-3Zm4 4v3h-4v-3h4Zm1 0h4v3h-4v-3Zm5 0h4v3h-4v-3Zm0-1v-3h4v3h-4Zm5-3h3v3h-3v-3Zm0-1v-3h3v3h-3Zm0-4v-3h3v3h-3Zm-19 10.195v-1.195h3v3h-1.263c-1.023 0-1.737-.742-1.737-1.805Zm20.107 1.805h-1.107v-3h3v1.195c0 1.029-.813 1.805-1.893 1.805Z"></path><path fill="#000" d="M7.642 4.897c.735 0 1.333-.598 1.333-1.333 0-.734-.598-1.332-1.333-1.332 -.734 0-1.332.598-1.332 1.332 0 .735.597 1.333 1.332 1.333Zm0-1.665c.184 0 .333.149.333.332 0 .184-.149.333-.333.333 -.183 0-.332-.149-.332-.333 0-.183.148-.332.332-.332Z"></path><path fill="#000" d="M16.358 4.897c.734 0 1.332-.598 1.332-1.333 0-.734-.598-1.332-1.332-1.332 -.734 0-1.332.598-1.332 1.332 0 .735.598 1.333 1.332 1.333Zm0-1.665c.183 0 .332.149.332.332 0 .184-.149.333-.332.333 -.183 0-.332-.149-.332-.333 0-.183.15-.332.332-.332Z"></path></g></svg>