<svg width="349" height="102" viewBox="0 0 349 102" fill="none" xmlns="http://www.w3.org/2000/svg">
<circle cx="51" cy="51" r="51" fill="#E15C43"/>
<path d="M80 57C80 72.464 67.464 85 52 85" stroke="white" stroke-width="9" stroke-linecap="round" stroke-linejoin="round"/>
<path d="M133.938 41.1875L134.219 44.9688C136.615 42.0312 139.854 40.5625 143.938 40.5625C148.292 40.5625 151.281 42.2812 152.906 45.7188C155.281 42.2812 158.667 40.5625 163.062 40.5625C166.729 40.5625 169.458 41.6354 171.25 43.7812C173.042 45.9062 173.938 49.1146 173.938 53.4062V75H164.875V53.4375C164.875 51.5208 164.5 50.125 163.75 49.25C163 48.3542 161.677 47.9062 159.781 47.9062C157.073 47.9062 155.198 49.1979 154.156 51.7812L154.188 75H145.156V53.4688C145.156 51.5104 144.771 50.0938 144 49.2188C143.229 48.3438 141.917 47.9062 140.062 47.9062C137.5 47.9062 135.646 48.9688 134.5 51.0938V75H125.469V41.1875H133.938ZM196.469 75.625C191.51 75.625 187.469 74.1042 184.344 71.0625C181.24 68.0208 179.688 63.9688 179.688 58.9062V58.0312C179.688 54.6354 180.344 51.6042 181.656 48.9375C182.969 46.25 184.823 44.1875 187.219 42.75C189.635 41.2917 192.385 40.5625 195.469 40.5625C200.094 40.5625 203.729 42.0208 206.375 44.9375C209.042 47.8542 210.375 51.9896 210.375 57.3438V61.0312H188.844C189.135 63.2396 190.01 65.0104 191.469 66.3438C192.948 67.6771 194.812 68.3438 197.062 68.3438C200.542 68.3438 203.26 67.0833 205.219 64.5625L209.656 69.5312C208.302 71.4479 206.469 72.9479 204.156 74.0312C201.844 75.0938 199.281 75.625 196.469 75.625ZM195.438 47.875C193.646 47.875 192.188 48.4792 191.062 49.6875C189.958 50.8958 189.25 52.625 188.938 54.875H201.5V54.1562C201.458 52.1562 200.917 50.6146 199.875 49.5312C198.833 48.4271 197.354 47.875 195.438 47.875ZM214.125 57.8438C214.125 52.5729 215.302 48.375 217.656 45.25C220.031 42.125 223.271 40.5625 227.375 40.5625C230.667 40.5625 233.385 41.7917 235.531 44.25V27H244.594V75H236.438L236 71.4062C233.75 74.2188 230.854 75.625 227.312 75.625C223.333 75.625 220.135 74.0625 217.719 70.9375C215.323 67.7917 214.125 63.4271 214.125 57.8438ZM223.156 58.5C223.156 61.6667 223.708 64.0938 224.812 65.7812C225.917 67.4688 227.521 68.3125 229.625 68.3125C232.417 68.3125 234.385 67.1354 235.531 64.7812V51.4375C234.406 49.0833 232.458 47.9062 229.688 47.9062C225.333 47.9062 223.156 51.4375 223.156 58.5ZM270.594 49.6562C269.365 49.4896 268.281 49.4062 267.344 49.4062C263.927 49.4062 261.688 50.5625 260.625 52.875V75H251.594V41.1875H260.125L260.375 45.2188C262.188 42.1146 264.698 40.5625 267.906 40.5625C268.906 40.5625 269.844 40.6979 270.719 40.9688L270.594 49.6562ZM289.906 75.625C284.948 75.625 280.906 74.1042 277.781 71.0625C274.677 68.0208 273.125 63.9688 273.125 58.9062V58.0312C273.125 54.6354 273.781 51.6042 275.094 48.9375C276.406 46.25 278.26 44.1875 280.656 42.75C283.073 41.2917 285.823 40.5625 288.906 40.5625C293.531 40.5625 297.167 42.0208 299.812 44.9375C302.479 47.8542 303.812 51.9896 303.812 57.3438V61.0312H282.281C282.573 63.2396 283.448 65.0104 284.906 66.3438C286.385 67.6771 288.25 68.3438 290.5 68.3438C293.979 68.3438 296.698 67.0833 298.656 64.5625L303.094 69.5312C301.74 71.4479 299.906 72.9479 297.594 74.0312C295.281 75.0938 292.719 75.625 289.906 75.625ZM288.875 47.875C287.083 47.875 285.625 48.4792 284.5 49.6875C283.396 50.8958 282.688 52.625 282.375 54.875H294.938V54.1562C294.896 52.1562 294.354 50.6146 293.312 49.5312C292.271 48.4271 290.792 47.875 288.875 47.875ZM307.562 57.8438C307.562 52.5729 308.74 48.375 311.094 45.25C313.469 42.125 316.708 40.5625 320.812 40.5625C324.104 40.5625 326.823 41.7917 328.969 44.25V27H338.031V75H329.875L329.438 71.4062C327.188 74.2188 324.292 75.625 320.75 75.625C316.771 75.625 313.573 74.0625 311.156 70.9375C308.76 67.7917 307.562 63.4271 307.562 57.8438ZM316.594 58.5C316.594 61.6667 317.146 64.0938 318.25 65.7812C319.354 67.4688 320.958 68.3125 323.062 68.3125C325.854 68.3125 327.823 67.1354 328.969 64.7812V51.4375C327.844 49.0833 325.896 47.9062 323.125 47.9062C318.771 47.9062 316.594 51.4375 316.594 58.5Z" fill="black"/>
</svg>
