<?xml version="1.0" encoding="UTF-8"?><svg version="1.1" viewBox="0 0 12 12" xmlns="http://www.w3.org/2000/svg" xmlns:xlink="http://www.w3.org/1999/xlink"><g transform="matrix(.5 0 0 .5 0 0)"><path fill="#000" d="M22.526 8.969c0-1.505-1.102-2.749-2.539-2.989v-4.979c0-.276-.224-.5-.5-.5 -.276 0-.5.224-.5.5v4.978c-1.438.24-2.54 1.484-2.54 2.989 0 1.505 1.102 2.748 2.54 2.989v11.065c0 .276.224.5.5.5 .276 0 .5-.224.5-.5v-11.065c1.438-.24 2.539-1.484 2.539-2.988Zm-3.039 2.039c-1.125 0-2.04-.915-2.04-2.039 0-1.124.915-2.04 2.04-2.04 1.124 0 2.039.915 2.039 2.04 0 1.125-.915 2.039-2.039 2.039Z"></path><path fill="#000" d="M5.053 2.077v-1.076c0-.276-.224-.5-.5-.5 -.276 0-.5.224-.5.5v1.076c-1.437.24-2.539 1.484-2.539 2.989 0 1.505 1.102 2.749 2.539 2.989v14.968c0 .276.224.5.5.5 .276 0 .5-.224.5-.5v-14.968c1.438-.24 2.54-1.484 2.54-2.989 0-1.505-1.102-2.749-2.54-2.989Zm-.5 5.028c-1.125 0-2.039-.915-2.039-2.04 0-1.125.915-2.039 2.039-2.039 1.124 0 2.04.915 2.04 2.039 0 1.124-.915 2.04-2.04 2.04Z"></path><path fill="#000" d="M12.5 14.076v-13.075c0-.276-.224-.5-.5-.5 -.276 0-.5.224-.5.5v13.074c-1.437.24-2.539 1.484-2.539 2.989 0 1.505 1.102 2.749 2.539 2.99v2.969c0 .276.224.5.5.5 .276 0 .5-.224.5-.5v-2.969c1.437-.24 2.539-1.484 2.539-2.99 0-1.504-1.102-2.748-2.539-2.988Zm-.5 5.028c-1.125 0-2.039-.915-2.039-2.04 0-1.124.915-2.039 2.039-2.039 1.124 0 2.039.915 2.039 2.039 0 1.125-.915 2.04-2.039 2.04Z"></path></g></svg>