<?xml version="1.0" encoding="UTF-8"?><svg version="1.1" viewBox="0 0 12 12" xmlns="http://www.w3.org/2000/svg" xmlns:xlink="http://www.w3.org/1999/xlink"><g transform="matrix(.5 0 0 .5 0 0)"><path fill="#000" d="M14.9 10c-.4 0-.8-.3-.9-.7l-2-5.4 -2 5.4c-.2.5-.8.8-1.3.6 -.5-.1-.7-.7-.6-1.2l2.9-8c.2-.4.6-.7 1-.7 .4 0 .8.3.9.7l2.9 8c.2.5-.1 1.1-.6 1.3 -.1 0-.2 0-.3 0Z"></path><path fill="#000" d="M20 24c-.2 0-.4-.1-.6-.2l-8-5.9c-.4-.3-.5-1-.2-1.4 .3-.4 1-.5 1.4-.2l5.3 3.9 -2.2-6.2c-.2-.5.1-1.1.6-1.3 .5-.2 1.1.1 1.3.6l3.4 9.3c.2.4 0 .9-.3 1.1 -.3.2-.5.3-.7.3Z"></path><path fill="#000" d="M16.6 14.7c-.3 0-.6-.1-.8-.4 -.3-.4-.2-1.1.2-1.4l4-2.9h-5c-.6 0-1-.4-1-1 0-.6.4-1 1-1h8c.4 0 .8.3 1 .7 .1.4 0 .9-.4 1.1l-6.4 4.7c-.2.1-.4.2-.6.2Z"></path><path fill="#000" d="M4 24c-.2 0-.4-.1-.6-.2 -.4-.3-.5-.7-.3-1.1l3.1-8.6 -5.8-4.3c-.3-.3-.5-.7-.4-1.1 .2-.4.6-.7 1-.7h8c.6 0 1 .4 1 1 0 .6-.4 1-1 1h-5l4 2.9c.4.3.5.7.3 1.1l-2.3 6.2 5.3-3.9c.4-.3 1.1-.2 1.4.2 .3.4.2 1.1-.2 1.4l-8 5.9c-.1.1-.3.2-.5.2Z"></path><path fill="#000" d="M18 10h-3c-.6 0-1-.4-1-1 0-.6.4-1 1-1h3c.6 0 1 .4 1 1 0 .6-.4 1-1 1Z"></path></g></svg>