<?xml version="1.0" encoding="UTF-8"?><svg version="1.1" viewBox="0 0 12 12" xmlns="http://www.w3.org/2000/svg" xmlns:xlink="http://www.w3.org/1999/xlink"><g transform="matrix(.25 0 0 .25 0 0)"><path fill="#000" d="M24 4c-11.05 0-20 8.95-20 20 0 11.05 8.95 20 20 20 11.05 0 20-8.95 20-20 0-11.05-8.95-20-20-20Zm0 6c3.31 0 6 2.69 6 6 0 3.32-2.69 6-6 6 -3.31 0-6-2.68-6-6 0-3.31 2.69-6 6-6Zm0 28.4c-5.01 0-9.41-2.56-12-6.44 .05-3.97 8.01-6.16 12-6.16 3.99 0 11.94 2.19 12 6.16 -2.59 3.88-6.99 6.44-12 6.44Z"></path><path fill="none" d="M0 0h48v48h-48Z"></path></g></svg>