<?xml version="1.0" encoding="UTF-8"?><svg version="1.1" viewBox="0 0 12 12" xmlns="http://www.w3.org/2000/svg" xmlns:xlink="http://www.w3.org/1999/xlink"><g transform="matrix(.5 0 0 .5 0 0)"><path fill="#000" d="M16.631 1.834c-.141-.141-.351-.183-.536-.112l-9.184 3.596c-.213.083-.342.302-.314.529 .008.061.682 6.195-6.36 14.45 -.169.198-.158.493.027.678l1.376 1.376c0 0 0 0 0 .001 0 .001 0 0 .001 0l1.376 1.376c.097.098.225.146.354.146 .115 0 .23-.04.325-.119 8.254-7.042 14.393-6.367 14.45-6.36 .221.032.445-.101.529-.313l3.595-9.186c.072-.185.028-.395-.112-.536l-5.527-5.526Zm1.247 14.54c-1.52-.05-7.137.201-14.479 6.322l-.699-.698 9.683-9.684c.236.125.501.202.786.202 .935 0 1.695-.761 1.695-1.695 0-.934-.761-1.695-1.695-1.695 -.934 0-1.695.76-1.695 1.695 0 .285.077.55.202.786l-9.684 9.684 -.698-.698c6.124-7.344 6.383-12.964 6.324-14.478l8.537-3.343 5.063 5.064 -3.34 8.538Zm-5.403-5.553c0-.383.312-.695.695-.695 .384 0 .695.312.695.695 0 .383-.312.695-.695.695 -.192 0-.365-.078-.491-.204 0 0 0 0 0 0 0 0 0 0 0 0 -.126-.126-.204-.299-.204-.491Z"></path><path fill="#000" d="M23.736 6.068l-5.852-5.852c-.195-.195-.512-.195-.707 0 -.195.195-.195.512 0 .707l5.852 5.852c.098.098.226.146.354.146 .128 0 .256-.049.354-.146 .195-.196.195-.512-.001-.707Z"></path></g></svg>